<svg xmlns="http://www.w3.org/2000/svg" width="800" height="600" viewBox="0 0 800 600">
  <rect width="800" height="600" fill="#0B0C0E"/>
  <!-- Grid lines -->
  <line x1="0" y1="150" x2="800" y2="150" stroke="#ffffff" stroke-width="0.5" stroke-opacity="0.04"/>
  <line x1="0" y1="300" x2="800" y2="300" stroke="#ffffff" stroke-width="0.5" stroke-opacity="0.04"/>
  <line x1="0" y1="450" x2="800" y2="450" stroke="#ffffff" stroke-width="0.5" stroke-opacity="0.04"/>
  <line x1="200" y1="0" x2="200" y2="600" stroke="#ffffff" stroke-width="0.5" stroke-opacity="0.04"/>
  <line x1="400" y1="0" x2="400" y2="600" stroke="#ffffff" stroke-width="0.5" stroke-opacity="0.04"/>
  <line x1="600" y1="0" x2="600" y2="600" stroke="#ffffff" stroke-width="0.5" stroke-opacity="0.04"/>
  <!-- Border -->
  <rect x="1" y="1" width="798" height="598" rx="12" fill="none" stroke="#F6A800" stroke-width="1" stroke-opacity="0.15"/>
  <!-- Camera icon -->
  <g transform="translate(363, 228)">
    <rect x="0" y="22" width="74" height="54" rx="6" fill="none" stroke="#F6A800" stroke-width="1.5" stroke-opacity="0.35"/>
    <path d="M14 22 L14 12 L60 12 L60 22" fill="none" stroke="#F6A800" stroke-width="1.5" stroke-opacity="0.35"/>
    <circle cx="37" cy="50" r="15" fill="none" stroke="#F6A800" stroke-width="1.5" stroke-opacity="0.35"/>
    <circle cx="37" cy="50" r="6" fill="#F6A800" fill-opacity="0.15"/>
    <circle cx="56" cy="32" r="3" fill="#F6A800" fill-opacity="0.25"/>
  </g>
  <!-- D&O Logo text -->
  <text x="400" y="340" font-family="'IBM Plex Mono', monospace" font-size="11" fill="#F6A800" fill-opacity="0.5" text-anchor="middle" letter-spacing="4">D&amp;O ADVANCED ENGINEERING</text>
  <text x="400" y="362" font-family="'IBM Plex Mono', monospace" font-size="9" fill="#3a3a3a" text-anchor="middle" letter-spacing="3">IMAGE PLACEHOLDER — UPLOAD YOUR FILE HERE</text>
  <!-- Corner marks -->
  <path d="M20 40 L20 20 L40 20" fill="none" stroke="#F6A800" stroke-width="1" stroke-opacity="0.3"/>
  <path d="M780 40 L780 20 L760 20" fill="none" stroke="#F6A800" stroke-width="1" stroke-opacity="0.3"/>
  <path d="M20 560 L20 580 L40 580" fill="none" stroke="#F6A800" stroke-width="1" stroke-opacity="0.3"/>
  <path d="M780 560 L780 580 L760 580" fill="none" stroke="#F6A800" stroke-width="1" stroke-opacity="0.3"/>
</svg>
